<?xml version="1.0" encoding="UTF-8"?>
<svg xmlns="http://www.w3.org/2000/svg" xmlns:xlink="http://www.w3.org/1999/xlink" viewBox="0 0 120 120" width="120px" height="120px">
<g id="surface4659031">
<path style=" stroke:none;fill-rule:nonzero;fill:rgb(10.588235%,11.764706%,15.294118%);fill-opacity:1;" d="M 18.632812 16 C 14.472656 25.722656 16.152344 33.839844 17.632812 38.289062 C 11.660156 44.6875 8.007812 53.507812 8.007812 65.25 C 8.007812 94.316406 26.367188 104 60.007812 104 C 93.648438 104 112.007812 94.316406 112.007812 65.25 C 112.011719 53.90625 108.148438 45.058594 101.890625 38.539062 C 102.785156 37.066406 104.015625 34.195312 104.015625 28.75 C 104.015625 20.5625 101.265625 16 101.265625 16 C 96.988281 16 86.941406 17.722656 78.632812 25.992188 C 72.734375 24.523438 66.445312 24 60.015625 24 C 53.71875 24 47.554688 24.34375 41.765625 25.617188 C 41.394531 25.273438 31.042969 16 18.632812 16 Z M 40.023438 54 C 45.234375 54.054688 53.835938 55.996094 60.015625 56 C 66.195312 55.996094 74.789062 54.054688 80 54 C 90.089844 54 96 62.011719 96 71.890625 C 96 88.097656 86.628906 95.996094 60.023438 96 L 60 96 C 33.394531 95.996094 24.023438 88.097656 24.023438 71.890625 C 24.023438 62.011719 29.933594 54 40.023438 54 Z M 42 68 C 38.6875 68 36 71.582031 36 76 C 36 80.417969 38.6875 84 42 84 C 45.3125 84 48 80.417969 48 76 C 48 71.582031 45.3125 68 42 68 Z M 78 68 C 74.6875 68 72 71.582031 72 76 C 72 80.417969 74.6875 84 78 84 C 81.3125 84 84 80.417969 84 76 C 84 71.582031 81.3125 68 78 68 Z M 78 68 "/>
</g>
</svg>
