<?xml version="1.0" encoding="UTF-8"?>
<svg xmlns="http://www.w3.org/2000/svg" xmlns:xlink="http://www.w3.org/1999/xlink" viewBox="0 0 120 120" width="120px" height="120px">
<g id="surface4584979">
<path style=" stroke:none;fill-rule:nonzero;fill:rgb(10.588235%,11.764706%,15.294118%);fill-opacity:1;" d="M 10 10 L 10 110 L 110 110 L 110 10 Z M 23.75 56.875 L 30 56.875 L 30 30 L 23.75 30 L 23.75 21.875 L 45 21.875 L 45 30 L 38.75 30 L 38.75 56.875 L 45 56.875 L 45 65 L 23.75 65 Z M 57.5 96.25 L 20 96.25 L 20 90 L 57.5 90 Z M 80 49.375 C 80 55 78.75 65.625 65 65.625 C 57.5 65.625 53.425781 61.113281 51.875 59.269531 L 57.644531 52.675781 C 58.683594 53.828125 61.25 56.875 65 56.875 C 70.625 56.875 70.625 51.25 70.625 49.375 L 70.625 21.875 L 80 21.875 Z M 80 49.375 "/>
</g>
</svg>
