<?xml version="1.0" encoding="UTF-8"?>
<svg xmlns="http://www.w3.org/2000/svg" xmlns:xlink="http://www.w3.org/1999/xlink" viewBox="0 0 120 120" width="120px" height="120px">
<g id="surface4599381">
<path style=" stroke:none;fill-rule:nonzero;fill:rgb(10.588235%,11.764706%,15.294118%);fill-opacity:1;" d="M 110 27.773438 L 110 92.226562 C 110 95.398438 108.023438 98.226562 105.050781 99.273438 L 83 109.625 L 85 82.5 L 85 37.5 L 83 10.375 L 105.050781 20.726562 C 108.023438 21.773438 110 24.601562 110 27.773438 Z M 110 27.773438 "/>
<path style=" stroke:none;fill-rule:nonzero;fill:rgb(10.588235%,11.764706%,15.294118%);fill-opacity:1;" d="M 22.5 84.738281 L 85 37.5 L 85 13.382812 C 85 10.386719 81.296875 8.988281 79.3125 11.234375 L 11.644531 73.097656 C 9.394531 75.171875 9.523438 78.765625 11.914062 80.675781 C 11.914062 80.675781 15.222656 83.757812 16.421875 84.613281 C 18.261719 85.925781 20.675781 86.074219 22.5 84.738281 Z M 22.5 84.738281 "/>
<path style=" stroke:none;fill-rule:nonzero;fill:rgb(10.588235%,11.764706%,15.294118%);fill-opacity:1;" d="M 22.5 35.261719 L 85 82.5 L 85 106.617188 C 85 109.613281 81.296875 111.011719 79.3125 108.765625 L 11.644531 46.902344 C 9.394531 44.828125 9.523438 41.234375 11.914062 39.324219 C 11.914062 39.324219 15.222656 36.242188 16.421875 35.386719 C 18.261719 34.074219 20.675781 33.925781 22.5 35.261719 Z M 22.5 35.261719 "/>
</g>
</svg>
